<?xml version="1.0" encoding="utf-8"?>
<svg xmlns="http://www.w3.org/2000/svg" xmlns:xlink="http://www.w3.org/1999/xlink" width="600" height="400" viewBox="0 0 2400 1600">
<defs>
  <clipPath id="clip5600">
    <rect x="0" y="0" width="2400" height="1600"/>
  </clipPath>
</defs>
<path clip-path="url(#clip5600)" d="
M0 1600 L2400 1600 L2400 0 L0 0  Z
  " fill="#ffffff" fill-rule="evenodd" fill-opacity="1"/>
<defs>
  <clipPath id="clip5601">
    <rect x="480" y="0" width="1681" height="1600"/>
  </clipPath>
</defs>
<path clip-path="url(#clip5600)" d="
M255.898 1425.62 L2352.76 1425.62 L2352.76 121.675 L255.898 121.675  Z
  " fill="#ffffff" fill-rule="evenodd" fill-opacity="1"/>
<defs>
  <clipPath id="clip5602">
    <rect x="255" y="121" width="2098" height="1305"/>
  </clipPath>
</defs>
<polyline clip-path="url(#clip5602)" style="stroke:#000000; stroke-width:2; stroke-opacity:0.1; fill:none" points="
  315.243,1425.62 315.243,121.675 
  "/>
<polyline clip-path="url(#clip5602)" style="stroke:#000000; stroke-width:2; stroke-opacity:0.1; fill:none" points="
  880.434,1425.62 880.434,121.675 
  "/>
<polyline clip-path="url(#clip5602)" style="stroke:#000000; stroke-width:2; stroke-opacity:0.1; fill:none" points="
  1445.62,1425.62 1445.62,121.675 
  "/>
<polyline clip-path="url(#clip5602)" style="stroke:#000000; stroke-width:2; stroke-opacity:0.1; fill:none" points="
  2010.82,1425.62 2010.82,121.675 
  "/>
<polyline clip-path="url(#clip5602)" style="stroke:#000000; stroke-width:2; stroke-opacity:0.1; fill:none" points="
  255.898,1388.71 2352.76,1388.71 
  "/>
<polyline clip-path="url(#clip5602)" style="stroke:#000000; stroke-width:2; stroke-opacity:0.1; fill:none" points="
  255.898,1081.18 2352.76,1081.18 
  "/>
<polyline clip-path="url(#clip5602)" style="stroke:#000000; stroke-width:2; stroke-opacity:0.1; fill:none" points="
  255.898,773.647 2352.76,773.647 
  "/>
<polyline clip-path="url(#clip5602)" style="stroke:#000000; stroke-width:2; stroke-opacity:0.1; fill:none" points="
  255.898,466.113 2352.76,466.113 
  "/>
<polyline clip-path="url(#clip5602)" style="stroke:#000000; stroke-width:2; stroke-opacity:0.1; fill:none" points="
  255.898,158.579 2352.76,158.579 
  "/>
<polyline clip-path="url(#clip5600)" style="stroke:#000000; stroke-width:4; stroke-opacity:1; fill:none" points="
  255.898,1425.62 2352.76,1425.62 
  "/>
<polyline clip-path="url(#clip5600)" style="stroke:#000000; stroke-width:4; stroke-opacity:1; fill:none" points="
  255.898,1425.62 255.898,121.675 
  "/>
<polyline clip-path="url(#clip5600)" style="stroke:#000000; stroke-width:4; stroke-opacity:1; fill:none" points="
  315.243,1425.62 315.243,1406.06 
  "/>
<polyline clip-path="url(#clip5600)" style="stroke:#000000; stroke-width:4; stroke-opacity:1; fill:none" points="
  880.434,1425.62 880.434,1406.06 
  "/>
<polyline clip-path="url(#clip5600)" style="stroke:#000000; stroke-width:4; stroke-opacity:1; fill:none" points="
  1445.62,1425.62 1445.62,1406.06 
  "/>
<polyline clip-path="url(#clip5600)" style="stroke:#000000; stroke-width:4; stroke-opacity:1; fill:none" points="
  2010.82,1425.62 2010.82,1406.06 
  "/>
<polyline clip-path="url(#clip5600)" style="stroke:#000000; stroke-width:4; stroke-opacity:1; fill:none" points="
  255.898,1388.71 287.35,1388.71 
  "/>
<polyline clip-path="url(#clip5600)" style="stroke:#000000; stroke-width:4; stroke-opacity:1; fill:none" points="
  255.898,1081.18 287.35,1081.18 
  "/>
<polyline clip-path="url(#clip5600)" style="stroke:#000000; stroke-width:4; stroke-opacity:1; fill:none" points="
  255.898,773.647 287.35,773.647 
  "/>
<polyline clip-path="url(#clip5600)" style="stroke:#000000; stroke-width:4; stroke-opacity:1; fill:none" points="
  255.898,466.113 287.35,466.113 
  "/>
<polyline clip-path="url(#clip5600)" style="stroke:#000000; stroke-width:4; stroke-opacity:1; fill:none" points="
  255.898,158.579 287.35,158.579 
  "/>
<g clip-path="url(#clip5600)">
<text style="fill:#000000; fill-opacity:1; font-family:Arial,Helvetica Neue,Helvetica,sans-serif; font-size:48px; text-anchor:start;" transform="rotate(0, 260.752, 1500.63)" x="260.752" y="1500.63">10</text>
</g>
<g clip-path="url(#clip5600)">
<text style="fill:#000000; fill-opacity:1; font-family:Arial,Helvetica Neue,Helvetica,sans-serif; font-size:38px; text-anchor:start;" transform="rotate(0, 314.277, 1473.22)" x="314.277" y="1473.22">-</text>
</g>
<g clip-path="url(#clip5600)">
<text style="fill:#000000; fill-opacity:1; font-family:Arial,Helvetica Neue,Helvetica,sans-serif; font-size:38px; text-anchor:start;" transform="rotate(0, 337.116, 1473.22)" x="337.116" y="1473.22">2 </text>
</g>
<g clip-path="url(#clip5600)">
<text style="fill:#000000; fill-opacity:1; font-family:Arial,Helvetica Neue,Helvetica,sans-serif; font-size:48px; text-anchor:start;" transform="rotate(0, 837.363, 1500.63)" x="837.363" y="1500.63">10</text>
</g>
<g clip-path="url(#clip5600)">
<text style="fill:#000000; fill-opacity:1; font-family:Arial,Helvetica Neue,Helvetica,sans-serif; font-size:38px; text-anchor:start;" transform="rotate(0, 890.888, 1473.22)" x="890.888" y="1473.22">0 </text>
</g>
<g clip-path="url(#clip5600)">
<text style="fill:#000000; fill-opacity:1; font-family:Arial,Helvetica Neue,Helvetica,sans-serif; font-size:48px; text-anchor:start;" transform="rotate(0, 1402.55, 1500.63)" x="1402.55" y="1500.63">10</text>
</g>
<g clip-path="url(#clip5600)">
<text style="fill:#000000; fill-opacity:1; font-family:Arial,Helvetica Neue,Helvetica,sans-serif; font-size:38px; text-anchor:start;" transform="rotate(0, 1456.08, 1473.22)" x="1456.08" y="1473.22">2 </text>
</g>
<g clip-path="url(#clip5600)">
<text style="fill:#000000; fill-opacity:1; font-family:Arial,Helvetica Neue,Helvetica,sans-serif; font-size:48px; text-anchor:start;" transform="rotate(0, 1967.74, 1500.63)" x="1967.74" y="1500.63">10</text>
</g>
<g clip-path="url(#clip5600)">
<text style="fill:#000000; fill-opacity:1; font-family:Arial,Helvetica Neue,Helvetica,sans-serif; font-size:38px; text-anchor:start;" transform="rotate(0, 2021.27, 1473.22)" x="2021.27" y="1473.22">4 </text>
</g>
<g clip-path="url(#clip5600)">
<text style="fill:#000000; fill-opacity:1; font-family:Arial,Helvetica Neue,Helvetica,sans-serif; font-size:48px; text-anchor:end;" transform="rotate(0, 231.898, 1406.21)" x="231.898" y="1406.21">0</text>
</g>
<g clip-path="url(#clip5600)">
<text style="fill:#000000; fill-opacity:1; font-family:Arial,Helvetica Neue,Helvetica,sans-serif; font-size:48px; text-anchor:end;" transform="rotate(0, 231.898, 1098.68)" x="231.898" y="1098.68">250</text>
</g>
<g clip-path="url(#clip5600)">
<text style="fill:#000000; fill-opacity:1; font-family:Arial,Helvetica Neue,Helvetica,sans-serif; font-size:48px; text-anchor:end;" transform="rotate(0, 231.898, 791.147)" x="231.898" y="791.147">500</text>
</g>
<g clip-path="url(#clip5600)">
<text style="fill:#000000; fill-opacity:1; font-family:Arial,Helvetica Neue,Helvetica,sans-serif; font-size:48px; text-anchor:end;" transform="rotate(0, 231.898, 483.613)" x="231.898" y="483.613">750</text>
</g>
<g clip-path="url(#clip5600)">
<text style="fill:#000000; fill-opacity:1; font-family:Arial,Helvetica Neue,Helvetica,sans-serif; font-size:48px; text-anchor:end;" transform="rotate(0, 231.898, 176.079)" x="231.898" y="176.079">1000</text>
</g>
<g clip-path="url(#clip5600)">
<text style="fill:#000000; fill-opacity:1; font-family:Arial,Helvetica Neue,Helvetica,sans-serif; font-size:84px; text-anchor:middle;" transform="rotate(0, 1304.33, 73.2)" x="1304.33" y="73.2">Figure 3. (a)</text>
</g>
<g clip-path="url(#clip5600)">
<text style="fill:#000000; fill-opacity:1; font-family:Arial,Helvetica Neue,Helvetica,sans-serif; font-size:66px; text-anchor:middle;" transform="rotate(0, 1304.33, 1559.48)" x="1304.33" y="1559.48">Initial Step Size</text>
</g>
<g clip-path="url(#clip5600)">
<text style="fill:#000000; fill-opacity:1; font-family:Arial,Helvetica Neue,Helvetica,sans-serif; font-size:66px; text-anchor:middle;" transform="rotate(-90, 89.2861, 773.647)" x="89.2861" y="773.647">Time to accuracy, eps=0.05</text>
</g>
<polyline clip-path="url(#clip5602)" style="stroke:#ff0000; stroke-width:4; stroke-opacity:1; fill:none" points="
  315.243,158.579 456.54,158.579 597.838,158.579 739.136,158.579 880.434,158.579 1021.73,158.579 1163.03,158.579 1304.33,158.579 1445.62,158.579 1586.92,158.579 
  1728.22,158.579 1869.52,158.579 2010.82,158.579 2152.11,158.579 2293.41,158.579 
  "/>
<polygon clip-path="url(#clip5602)" style="fill:#000000; fill-opacity:1" points="
  335.243,138.579 295.243,138.579 315.243,178.579 335.243,138.579 
  "/>
<polygon clip-path="url(#clip5602)" style="fill:#ff0000; fill-opacity:1" points="
  331.243,142.579 299.243,142.579 315.243,174.579 331.243,142.579 
  "/>
<polygon clip-path="url(#clip5602)" style="fill:#000000; fill-opacity:1" points="
  476.54,138.579 436.54,138.579 456.54,178.579 476.54,138.579 
  "/>
<polygon clip-path="url(#clip5602)" style="fill:#ff0000; fill-opacity:1" points="
  472.54,142.579 440.54,142.579 456.54,174.579 472.54,142.579 
  "/>
<polygon clip-path="url(#clip5602)" style="fill:#000000; fill-opacity:1" points="
  617.838,138.579 577.838,138.579 597.838,178.579 617.838,138.579 
  "/>
<polygon clip-path="url(#clip5602)" style="fill:#ff0000; fill-opacity:1" points="
  613.838,142.579 581.838,142.579 597.838,174.579 613.838,142.579 
  "/>
<polygon clip-path="url(#clip5602)" style="fill:#000000; fill-opacity:1" points="
  759.136,138.579 719.136,138.579 739.136,178.579 759.136,138.579 
  "/>
<polygon clip-path="url(#clip5602)" style="fill:#ff0000; fill-opacity:1" points="
  755.136,142.579 723.136,142.579 739.136,174.579 755.136,142.579 
  "/>
<polygon clip-path="url(#clip5602)" style="fill:#000000; fill-opacity:1" points="
  900.434,138.579 860.434,138.579 880.434,178.579 900.434,138.579 
  "/>
<polygon clip-path="url(#clip5602)" style="fill:#ff0000; fill-opacity:1" points="
  896.434,142.579 864.434,142.579 880.434,174.579 896.434,142.579 
  "/>
<polygon clip-path="url(#clip5602)" style="fill:#000000; fill-opacity:1" points="
  1041.73,138.579 1001.73,138.579 1021.73,178.579 1041.73,138.579 
  "/>
<polygon clip-path="url(#clip5602)" style="fill:#ff0000; fill-opacity:1" points="
  1037.73,142.579 1005.73,142.579 1021.73,174.579 1037.73,142.579 
  "/>
<polygon clip-path="url(#clip5602)" style="fill:#000000; fill-opacity:1" points="
  1183.03,138.579 1143.03,138.579 1163.03,178.579 1183.03,138.579 
  "/>
<polygon clip-path="url(#clip5602)" style="fill:#ff0000; fill-opacity:1" points="
  1179.03,142.579 1147.03,142.579 1163.03,174.579 1179.03,142.579 
  "/>
<polygon clip-path="url(#clip5602)" style="fill:#000000; fill-opacity:1" points="
  1324.33,138.579 1284.33,138.579 1304.33,178.579 1324.33,138.579 
  "/>
<polygon clip-path="url(#clip5602)" style="fill:#ff0000; fill-opacity:1" points="
  1320.33,142.579 1288.33,142.579 1304.33,174.579 1320.33,142.579 
  "/>
<polygon clip-path="url(#clip5602)" style="fill:#000000; fill-opacity:1" points="
  1465.62,138.579 1425.62,138.579 1445.62,178.579 1465.62,138.579 
  "/>
<polygon clip-path="url(#clip5602)" style="fill:#ff0000; fill-opacity:1" points="
  1461.62,142.579 1429.62,142.579 1445.62,174.579 1461.62,142.579 
  "/>
<polygon clip-path="url(#clip5602)" style="fill:#000000; fill-opacity:1" points="
  1606.92,138.579 1566.92,138.579 1586.92,178.579 1606.92,138.579 
  "/>
<polygon clip-path="url(#clip5602)" style="fill:#ff0000; fill-opacity:1" points="
  1602.92,142.579 1570.92,142.579 1586.92,174.579 1602.92,142.579 
  "/>
<polygon clip-path="url(#clip5602)" style="fill:#000000; fill-opacity:1" points="
  1748.22,138.579 1708.22,138.579 1728.22,178.579 1748.22,138.579 
  "/>
<polygon clip-path="url(#clip5602)" style="fill:#ff0000; fill-opacity:1" points="
  1744.22,142.579 1712.22,142.579 1728.22,174.579 1744.22,142.579 
  "/>
<polygon clip-path="url(#clip5602)" style="fill:#000000; fill-opacity:1" points="
  1889.52,138.579 1849.52,138.579 1869.52,178.579 1889.52,138.579 
  "/>
<polygon clip-path="url(#clip5602)" style="fill:#ff0000; fill-opacity:1" points="
  1885.52,142.579 1853.52,142.579 1869.52,174.579 1885.52,142.579 
  "/>
<polygon clip-path="url(#clip5602)" style="fill:#000000; fill-opacity:1" points="
  2030.82,138.579 1990.82,138.579 2010.82,178.579 2030.82,138.579 
  "/>
<polygon clip-path="url(#clip5602)" style="fill:#ff0000; fill-opacity:1" points="
  2026.82,142.579 1994.82,142.579 2010.82,174.579 2026.82,142.579 
  "/>
<polygon clip-path="url(#clip5602)" style="fill:#000000; fill-opacity:1" points="
  2172.11,138.579 2132.11,138.579 2152.11,178.579 2172.11,138.579 
  "/>
<polygon clip-path="url(#clip5602)" style="fill:#ff0000; fill-opacity:1" points="
  2168.11,142.579 2136.11,142.579 2152.11,174.579 2168.11,142.579 
  "/>
<polygon clip-path="url(#clip5602)" style="fill:#000000; fill-opacity:1" points="
  2313.41,138.579 2273.41,138.579 2293.41,178.579 2313.41,138.579 
  "/>
<polygon clip-path="url(#clip5602)" style="fill:#ff0000; fill-opacity:1" points="
  2309.41,142.579 2277.41,142.579 2293.41,174.579 2309.41,142.579 
  "/>
<polyline clip-path="url(#clip5602)" style="stroke:#008000; stroke-width:4; stroke-opacity:1; fill:none" points="
  315.243,158.579 456.54,158.579 597.838,158.579 739.136,158.579 880.434,158.579 1021.73,814.856 1163.03,921.878 1304.33,920.648 1445.62,917.573 1586.92,921.263 
  1728.22,921.878 1869.52,920.033 2010.82,921.878 2152.11,923.108 2293.41,924.954 
  "/>
<circle clip-path="url(#clip5602)" style="fill:#000000; stroke:none; fill-opacity:1" cx="315.243" cy="158.579" r="18"/>
<circle clip-path="url(#clip5602)" style="fill:#008000; stroke:none; fill-opacity:1" cx="315.243" cy="158.579" r="14"/>
<circle clip-path="url(#clip5602)" style="fill:#000000; stroke:none; fill-opacity:1" cx="456.54" cy="158.579" r="18"/>
<circle clip-path="url(#clip5602)" style="fill:#008000; stroke:none; fill-opacity:1" cx="456.54" cy="158.579" r="14"/>
<circle clip-path="url(#clip5602)" style="fill:#000000; stroke:none; fill-opacity:1" cx="597.838" cy="158.579" r="18"/>
<circle clip-path="url(#clip5602)" style="fill:#008000; stroke:none; fill-opacity:1" cx="597.838" cy="158.579" r="14"/>
<circle clip-path="url(#clip5602)" style="fill:#000000; stroke:none; fill-opacity:1" cx="739.136" cy="158.579" r="18"/>
<circle clip-path="url(#clip5602)" style="fill:#008000; stroke:none; fill-opacity:1" cx="739.136" cy="158.579" r="14"/>
<circle clip-path="url(#clip5602)" style="fill:#000000; stroke:none; fill-opacity:1" cx="880.434" cy="158.579" r="18"/>
<circle clip-path="url(#clip5602)" style="fill:#008000; stroke:none; fill-opacity:1" cx="880.434" cy="158.579" r="14"/>
<circle clip-path="url(#clip5602)" style="fill:#000000; stroke:none; fill-opacity:1" cx="1021.73" cy="814.856" r="18"/>
<circle clip-path="url(#clip5602)" style="fill:#008000; stroke:none; fill-opacity:1" cx="1021.73" cy="814.856" r="14"/>
<circle clip-path="url(#clip5602)" style="fill:#000000; stroke:none; fill-opacity:1" cx="1163.03" cy="921.878" r="18"/>
<circle clip-path="url(#clip5602)" style="fill:#008000; stroke:none; fill-opacity:1" cx="1163.03" cy="921.878" r="14"/>
<circle clip-path="url(#clip5602)" style="fill:#000000; stroke:none; fill-opacity:1" cx="1304.33" cy="920.648" r="18"/>
<circle clip-path="url(#clip5602)" style="fill:#008000; stroke:none; fill-opacity:1" cx="1304.33" cy="920.648" r="14"/>
<circle clip-path="url(#clip5602)" style="fill:#000000; stroke:none; fill-opacity:1" cx="1445.62" cy="917.573" r="18"/>
<circle clip-path="url(#clip5602)" style="fill:#008000; stroke:none; fill-opacity:1" cx="1445.62" cy="917.573" r="14"/>
<circle clip-path="url(#clip5602)" style="fill:#000000; stroke:none; fill-opacity:1" cx="1586.92" cy="921.263" r="18"/>
<circle clip-path="url(#clip5602)" style="fill:#008000; stroke:none; fill-opacity:1" cx="1586.92" cy="921.263" r="14"/>
<circle clip-path="url(#clip5602)" style="fill:#000000; stroke:none; fill-opacity:1" cx="1728.22" cy="921.878" r="18"/>
<circle clip-path="url(#clip5602)" style="fill:#008000; stroke:none; fill-opacity:1" cx="1728.22" cy="921.878" r="14"/>
<circle clip-path="url(#clip5602)" style="fill:#000000; stroke:none; fill-opacity:1" cx="1869.52" cy="920.033" r="18"/>
<circle clip-path="url(#clip5602)" style="fill:#008000; stroke:none; fill-opacity:1" cx="1869.52" cy="920.033" r="14"/>
<circle clip-path="url(#clip5602)" style="fill:#000000; stroke:none; fill-opacity:1" cx="2010.82" cy="921.878" r="18"/>
<circle clip-path="url(#clip5602)" style="fill:#008000; stroke:none; fill-opacity:1" cx="2010.82" cy="921.878" r="14"/>
<circle clip-path="url(#clip5602)" style="fill:#000000; stroke:none; fill-opacity:1" cx="2152.11" cy="923.108" r="18"/>
<circle clip-path="url(#clip5602)" style="fill:#008000; stroke:none; fill-opacity:1" cx="2152.11" cy="923.108" r="14"/>
<circle clip-path="url(#clip5602)" style="fill:#000000; stroke:none; fill-opacity:1" cx="2293.41" cy="924.954" r="18"/>
<circle clip-path="url(#clip5602)" style="fill:#008000; stroke:none; fill-opacity:1" cx="2293.41" cy="924.954" r="14"/>
<polyline clip-path="url(#clip5602)" style="stroke:#0000ff; stroke-width:4; stroke-opacity:1; fill:none" points="
  315.243,158.579 456.54,158.579 597.838,158.579 739.136,158.579 880.434,158.579 1021.73,648.173 1163.03,995.071 1304.33,1065.8 1445.62,1064.57 1586.92,1075.03 
  1728.22,1075.03 1869.52,1071.34 2010.82,1079.95 2152.11,1079.34 2293.41,1070.11 
  "/>
<polygon clip-path="url(#clip5602)" style="fill:#000000; fill-opacity:1" points="
  295.243,138.579 295.243,178.579 335.243,178.579 335.243,138.579 295.243,138.579 
  "/>
<polygon clip-path="url(#clip5602)" style="fill:#0000ff; fill-opacity:1" points="
  299.243,142.579 299.243,174.579 331.243,174.579 331.243,142.579 299.243,142.579 
  "/>
<polygon clip-path="url(#clip5602)" style="fill:#000000; fill-opacity:1" points="
  436.54,138.579 436.54,178.579 476.54,178.579 476.54,138.579 436.54,138.579 
  "/>
<polygon clip-path="url(#clip5602)" style="fill:#0000ff; fill-opacity:1" points="
  440.54,142.579 440.54,174.579 472.54,174.579 472.54,142.579 440.54,142.579 
  "/>
<polygon clip-path="url(#clip5602)" style="fill:#000000; fill-opacity:1" points="
  577.838,138.579 577.838,178.579 617.838,178.579 617.838,138.579 577.838,138.579 
  "/>
<polygon clip-path="url(#clip5602)" style="fill:#0000ff; fill-opacity:1" points="
  581.838,142.579 581.838,174.579 613.838,174.579 613.838,142.579 581.838,142.579 
  "/>
<polygon clip-path="url(#clip5602)" style="fill:#000000; fill-opacity:1" points="
  719.136,138.579 719.136,178.579 759.136,178.579 759.136,138.579 719.136,138.579 
  "/>
<polygon clip-path="url(#clip5602)" style="fill:#0000ff; fill-opacity:1" points="
  723.136,142.579 723.136,174.579 755.136,174.579 755.136,142.579 723.136,142.579 
  "/>
<polygon clip-path="url(#clip5602)" style="fill:#000000; fill-opacity:1" points="
  860.434,138.579 860.434,178.579 900.434,178.579 900.434,138.579 860.434,138.579 
  "/>
<polygon clip-path="url(#clip5602)" style="fill:#0000ff; fill-opacity:1" points="
  864.434,142.579 864.434,174.579 896.434,174.579 896.434,142.579 864.434,142.579 
  "/>
<polygon clip-path="url(#clip5602)" style="fill:#000000; fill-opacity:1" points="
  1001.73,628.173 1001.73,668.173 1041.73,668.173 1041.73,628.173 1001.73,628.173 
  "/>
<polygon clip-path="url(#clip5602)" style="fill:#0000ff; fill-opacity:1" points="
  1005.73,632.173 1005.73,664.173 1037.73,664.173 1037.73,632.173 1005.73,632.173 
  "/>
<polygon clip-path="url(#clip5602)" style="fill:#000000; fill-opacity:1" points="
  1143.03,975.071 1143.03,1015.07 1183.03,1015.07 1183.03,975.071 1143.03,975.071 
  "/>
<polygon clip-path="url(#clip5602)" style="fill:#0000ff; fill-opacity:1" points="
  1147.03,979.071 1147.03,1011.07 1179.03,1011.07 1179.03,979.071 1147.03,979.071 
  "/>
<polygon clip-path="url(#clip5602)" style="fill:#000000; fill-opacity:1" points="
  1284.33,1045.8 1284.33,1085.8 1324.33,1085.8 1324.33,1045.8 1284.33,1045.8 
  "/>
<polygon clip-path="url(#clip5602)" style="fill:#0000ff; fill-opacity:1" points="
  1288.33,1049.8 1288.33,1081.8 1320.33,1081.8 1320.33,1049.8 1288.33,1049.8 
  "/>
<polygon clip-path="url(#clip5602)" style="fill:#000000; fill-opacity:1" points="
  1425.62,1044.57 1425.62,1084.57 1465.62,1084.57 1465.62,1044.57 1425.62,1044.57 
  "/>
<polygon clip-path="url(#clip5602)" style="fill:#0000ff; fill-opacity:1" points="
  1429.62,1048.57 1429.62,1080.57 1461.62,1080.57 1461.62,1048.57 1429.62,1048.57 
  "/>
<polygon clip-path="url(#clip5602)" style="fill:#000000; fill-opacity:1" points="
  1566.92,1055.03 1566.92,1095.03 1606.92,1095.03 1606.92,1055.03 1566.92,1055.03 
  "/>
<polygon clip-path="url(#clip5602)" style="fill:#0000ff; fill-opacity:1" points="
  1570.92,1059.03 1570.92,1091.03 1602.92,1091.03 1602.92,1059.03 1570.92,1059.03 
  "/>
<polygon clip-path="url(#clip5602)" style="fill:#000000; fill-opacity:1" points="
  1708.22,1055.03 1708.22,1095.03 1748.22,1095.03 1748.22,1055.03 1708.22,1055.03 
  "/>
<polygon clip-path="url(#clip5602)" style="fill:#0000ff; fill-opacity:1" points="
  1712.22,1059.03 1712.22,1091.03 1744.22,1091.03 1744.22,1059.03 1712.22,1059.03 
  "/>
<polygon clip-path="url(#clip5602)" style="fill:#000000; fill-opacity:1" points="
  1849.52,1051.34 1849.52,1091.34 1889.52,1091.34 1889.52,1051.34 1849.52,1051.34 
  "/>
<polygon clip-path="url(#clip5602)" style="fill:#0000ff; fill-opacity:1" points="
  1853.52,1055.34 1853.52,1087.34 1885.52,1087.34 1885.52,1055.34 1853.52,1055.34 
  "/>
<polygon clip-path="url(#clip5602)" style="fill:#000000; fill-opacity:1" points="
  1990.82,1059.95 1990.82,1099.95 2030.82,1099.95 2030.82,1059.95 1990.82,1059.95 
  "/>
<polygon clip-path="url(#clip5602)" style="fill:#0000ff; fill-opacity:1" points="
  1994.82,1063.95 1994.82,1095.95 2026.82,1095.95 2026.82,1063.95 1994.82,1063.95 
  "/>
<polygon clip-path="url(#clip5602)" style="fill:#000000; fill-opacity:1" points="
  2132.11,1059.34 2132.11,1099.34 2172.11,1099.34 2172.11,1059.34 2132.11,1059.34 
  "/>
<polygon clip-path="url(#clip5602)" style="fill:#0000ff; fill-opacity:1" points="
  2136.11,1063.34 2136.11,1095.34 2168.11,1095.34 2168.11,1063.34 2136.11,1063.34 
  "/>
<polygon clip-path="url(#clip5602)" style="fill:#000000; fill-opacity:1" points="
  2273.41,1050.11 2273.41,1090.11 2313.41,1090.11 2313.41,1050.11 2273.41,1050.11 
  "/>
<polygon clip-path="url(#clip5602)" style="fill:#0000ff; fill-opacity:1" points="
  2277.41,1054.11 2277.41,1086.11 2309.41,1086.11 2309.41,1054.11 2277.41,1054.11 
  "/>
<polyline clip-path="url(#clip5602)" style="stroke:#000000; stroke-width:4; stroke-opacity:1; fill:none" points="
  315.243,158.579 456.54,158.579 597.838,158.579 739.136,158.579 880.434,158.579 1021.73,480.875 1163.03,158.579 1304.33,158.579 1445.62,158.579 1586.92,158.579 
  1728.22,158.579 1869.52,158.579 2010.82,158.579 2152.11,158.579 2293.41,158.579 
  "/>
<polygon clip-path="url(#clip5602)" style="fill:#000000; fill-opacity:1" points="
  315.243,138.579 295.243,158.579 315.243,178.579 335.243,158.579 315.243,138.579 
  "/>
<polygon clip-path="url(#clip5602)" style="fill:#000000; fill-opacity:1" points="
  315.243,142.579 299.243,158.579 315.243,174.579 331.243,158.579 315.243,142.579 
  "/>
<polygon clip-path="url(#clip5602)" style="fill:#000000; fill-opacity:1" points="
  456.54,138.579 436.54,158.579 456.54,178.579 476.54,158.579 456.54,138.579 
  "/>
<polygon clip-path="url(#clip5602)" style="fill:#000000; fill-opacity:1" points="
  456.54,142.579 440.54,158.579 456.54,174.579 472.54,158.579 456.54,142.579 
  "/>
<polygon clip-path="url(#clip5602)" style="fill:#000000; fill-opacity:1" points="
  597.838,138.579 577.838,158.579 597.838,178.579 617.838,158.579 597.838,138.579 
  "/>
<polygon clip-path="url(#clip5602)" style="fill:#000000; fill-opacity:1" points="
  597.838,142.579 581.838,158.579 597.838,174.579 613.838,158.579 597.838,142.579 
  "/>
<polygon clip-path="url(#clip5602)" style="fill:#000000; fill-opacity:1" points="
  739.136,138.579 719.136,158.579 739.136,178.579 759.136,158.579 739.136,138.579 
  "/>
<polygon clip-path="url(#clip5602)" style="fill:#000000; fill-opacity:1" points="
  739.136,142.579 723.136,158.579 739.136,174.579 755.136,158.579 739.136,142.579 
  "/>
<polygon clip-path="url(#clip5602)" style="fill:#000000; fill-opacity:1" points="
  880.434,138.579 860.434,158.579 880.434,178.579 900.434,158.579 880.434,138.579 
  "/>
<polygon clip-path="url(#clip5602)" style="fill:#000000; fill-opacity:1" points="
  880.434,142.579 864.434,158.579 880.434,174.579 896.434,158.579 880.434,142.579 
  "/>
<polygon clip-path="url(#clip5602)" style="fill:#000000; fill-opacity:1" points="
  1021.73,460.875 1001.73,480.875 1021.73,500.875 1041.73,480.875 1021.73,460.875 
  "/>
<polygon clip-path="url(#clip5602)" style="fill:#000000; fill-opacity:1" points="
  1021.73,464.875 1005.73,480.875 1021.73,496.875 1037.73,480.875 1021.73,464.875 
  "/>
<polygon clip-path="url(#clip5602)" style="fill:#000000; fill-opacity:1" points="
  1163.03,138.579 1143.03,158.579 1163.03,178.579 1183.03,158.579 1163.03,138.579 
  "/>
<polygon clip-path="url(#clip5602)" style="fill:#000000; fill-opacity:1" points="
  1163.03,142.579 1147.03,158.579 1163.03,174.579 1179.03,158.579 1163.03,142.579 
  "/>
<polygon clip-path="url(#clip5602)" style="fill:#000000; fill-opacity:1" points="
  1304.33,138.579 1284.33,158.579 1304.33,178.579 1324.33,158.579 1304.33,138.579 
  "/>
<polygon clip-path="url(#clip5602)" style="fill:#000000; fill-opacity:1" points="
  1304.33,142.579 1288.33,158.579 1304.33,174.579 1320.33,158.579 1304.33,142.579 
  "/>
<polygon clip-path="url(#clip5602)" style="fill:#000000; fill-opacity:1" points="
  1445.62,138.579 1425.62,158.579 1445.62,178.579 1465.62,158.579 1445.62,138.579 
  "/>
<polygon clip-path="url(#clip5602)" style="fill:#000000; fill-opacity:1" points="
  1445.62,142.579 1429.62,158.579 1445.62,174.579 1461.62,158.579 1445.62,142.579 
  "/>
<polygon clip-path="url(#clip5602)" style="fill:#000000; fill-opacity:1" points="
  1586.92,138.579 1566.92,158.579 1586.92,178.579 1606.92,158.579 1586.92,138.579 
  "/>
<polygon clip-path="url(#clip5602)" style="fill:#000000; fill-opacity:1" points="
  1586.92,142.579 1570.92,158.579 1586.92,174.579 1602.92,158.579 1586.92,142.579 
  "/>
<polygon clip-path="url(#clip5602)" style="fill:#000000; fill-opacity:1" points="
  1728.22,138.579 1708.22,158.579 1728.22,178.579 1748.22,158.579 1728.22,138.579 
  "/>
<polygon clip-path="url(#clip5602)" style="fill:#000000; fill-opacity:1" points="
  1728.22,142.579 1712.22,158.579 1728.22,174.579 1744.22,158.579 1728.22,142.579 
  "/>
<polygon clip-path="url(#clip5602)" style="fill:#000000; fill-opacity:1" points="
  1869.52,138.579 1849.52,158.579 1869.52,178.579 1889.52,158.579 1869.52,138.579 
  "/>
<polygon clip-path="url(#clip5602)" style="fill:#000000; fill-opacity:1" points="
  1869.52,142.579 1853.52,158.579 1869.52,174.579 1885.52,158.579 1869.52,142.579 
  "/>
<polygon clip-path="url(#clip5602)" style="fill:#000000; fill-opacity:1" points="
  2010.82,138.579 1990.82,158.579 2010.82,178.579 2030.82,158.579 2010.82,138.579 
  "/>
<polygon clip-path="url(#clip5602)" style="fill:#000000; fill-opacity:1" points="
  2010.82,142.579 1994.82,158.579 2010.82,174.579 2026.82,158.579 2010.82,142.579 
  "/>
<polygon clip-path="url(#clip5602)" style="fill:#000000; fill-opacity:1" points="
  2152.11,138.579 2132.11,158.579 2152.11,178.579 2172.11,158.579 2152.11,138.579 
  "/>
<polygon clip-path="url(#clip5602)" style="fill:#000000; fill-opacity:1" points="
  2152.11,142.579 2136.11,158.579 2152.11,174.579 2168.11,158.579 2152.11,142.579 
  "/>
<polygon clip-path="url(#clip5602)" style="fill:#000000; fill-opacity:1" points="
  2293.41,138.579 2273.41,158.579 2293.41,178.579 2313.41,158.579 2293.41,138.579 
  "/>
<polygon clip-path="url(#clip5602)" style="fill:#000000; fill-opacity:1" points="
  2293.41,142.579 2277.41,158.579 2293.41,174.579 2309.41,158.579 2293.41,142.579 
  "/>
<path clip-path="url(#clip5602)" d="
M315.243 158.579 L456.54 158.579 L597.838 158.579 L739.136 158.579 L880.434 158.579 L1021.73 768.788 L1163.03 158.579 L1304.33 158.579 L1445.62 158.579 L1586.92 158.579 
  L1728.22 158.579 L1869.52 158.579 L2010.82 158.579 L2152.11 158.579 L2293.41 158.579 L315.243 158.579 L456.54 158.579 L597.838 158.579 L739.136 158.579 L880.434 158.579 
  L1021.73 158.579 L1163.03 158.579 L1304.33 158.579 L1445.62 158.579 L1586.92 158.579 L1728.22 158.579 L1869.52 158.579 L2010.82 158.579 L2152.11 158.579 L2293.41 158.579 
  L315.243 158.579  Z
  " fill="#ff0000" fill-rule="evenodd" fill-opacity="0.2"/>
<polyline clip-path="url(#clip5602)" style="stroke:#000000; stroke-width:4; stroke-opacity:0; fill:none" points="
  315.243,158.579 456.54,158.579 597.838,158.579 739.136,158.579 880.434,158.579 1021.73,768.788 1163.03,158.579 1304.33,158.579 1445.62,158.579 1586.92,158.579 
  1728.22,158.579 1869.52,158.579 2010.82,158.579 2152.11,158.579 2293.41,158.579 315.243,158.579 456.54,158.579 597.838,158.579 739.136,158.579 880.434,158.579 
  1021.73,158.579 1163.03,158.579 1304.33,158.579 1445.62,158.579 1586.92,158.579 1728.22,158.579 1869.52,158.579 2010.82,158.579 2152.11,158.579 2293.41,158.579 
  315.243,158.579 
  "/>
<path clip-path="url(#clip5602)" d="
M315.243 158.579 L456.54 158.579 L597.838 158.579 L739.136 158.579 L880.434 158.579 L1021.73 921.386 L1163.03 1000.11 L1304.33 976.988 L1445.62 991.688 L1586.92 988.982 
  L1728.22 987.752 L1869.52 987.875 L2010.82 991.504 L2152.11 1008.17 L2293.41 992.857 L2293.41 855.512 L2152.11 842.473 L2010.82 857.05 L1869.52 861.848 L1728.22 855.82 
  L1586.92 841.181 L1445.62 847.393 L1304.33 843.703 L1163.03 843.765 L1021.73 708.327 L880.434 158.579 L739.136 158.579 L597.838 158.579 L456.54 158.579 L315.243 158.579 
   Z
  " fill="#008000" fill-rule="evenodd" fill-opacity="0.2"/>
<polyline clip-path="url(#clip5602)" style="stroke:#000000; stroke-width:4; stroke-opacity:0; fill:none" points="
  315.243,158.579 456.54,158.579 597.838,158.579 739.136,158.579 880.434,158.579 1021.73,921.386 1163.03,1000.11 1304.33,976.988 1445.62,991.688 1586.92,988.982 
  1728.22,987.752 1869.52,987.875 2010.82,991.504 2152.11,1008.17 2293.41,992.857 2293.41,855.512 2152.11,842.473 2010.82,857.05 1869.52,861.848 1728.22,855.82 
  1586.92,841.181 1445.62,847.393 1304.33,843.703 1163.03,843.765 1021.73,708.327 880.434,158.579 739.136,158.579 597.838,158.579 456.54,158.579 315.243,158.579 
  
  "/>
<path clip-path="url(#clip5602)" d="
M315.243 158.579 L456.54 158.579 L597.838 158.579 L739.136 158.579 L880.434 158.579 L1021.73 783.857 L1163.03 1080.01 L1304.33 1123.07 L1445.62 1139.18 L1586.92 1139 
  L1728.22 1134.2 L1869.52 1135.49 L2010.82 1139 L2152.11 1140.66 L2293.41 1126.82 L2293.41 1002.45 L2152.11 1009.53 L2010.82 1011.99 L1869.52 992.549 L1728.22 998.577 
  L1586.92 1002.39 L1445.62 995.01 L1304.33 993.595 L1163.03 923.723 L1021.73 501.664 L880.434 158.579 L739.136 158.579 L597.838 158.579 L456.54 158.579 L315.243 158.579 
   Z
  " fill="#0000ff" fill-rule="evenodd" fill-opacity="0.2"/>
<polyline clip-path="url(#clip5602)" style="stroke:#000000; stroke-width:4; stroke-opacity:0; fill:none" points="
  315.243,158.579 456.54,158.579 597.838,158.579 739.136,158.579 880.434,158.579 1021.73,783.857 1163.03,1080.01 1304.33,1123.07 1445.62,1139.18 1586.92,1139 
  1728.22,1134.2 1869.52,1135.49 2010.82,1139 2152.11,1140.66 2293.41,1126.82 2293.41,1002.45 2152.11,1009.53 2010.82,1011.99 1869.52,992.549 1728.22,998.577 
  1586.92,1002.39 1445.62,995.01 1304.33,993.595 1163.03,923.723 1021.73,501.664 880.434,158.579 739.136,158.579 597.838,158.579 456.54,158.579 315.243,158.579 
  
  "/>
<path clip-path="url(#clip5602)" d="
M315.243 158.579 L456.54 158.579 L597.838 158.579 L739.136 158.579 L880.434 158.579 L1021.73 770.387 L1163.03 158.579 L1304.33 158.579 L1445.62 158.579 L1586.92 158.579 
  L1728.22 158.579 L1869.52 158.579 L2010.82 158.579 L2152.11 158.579 L2293.41 158.579 L2152.11 158.579 L2010.82 158.579 L1869.52 158.579 L1728.22 158.579 L1586.92 158.579 
  L1445.62 158.579 L1304.33 158.579 L1163.03 158.579 L1021.73 158.579 L880.434 158.579 L739.136 158.579 L597.838 158.579 L456.54 158.579 L315.243 158.579  Z
  " fill="#000000" fill-rule="evenodd" fill-opacity="0.2"/>
<polyline clip-path="url(#clip5602)" style="stroke:#000000; stroke-width:4; stroke-opacity:0; fill:none" points="
  315.243,158.579 456.54,158.579 597.838,158.579 739.136,158.579 880.434,158.579 1021.73,770.387 1163.03,158.579 1304.33,158.579 1445.62,158.579 1586.92,158.579 
  1728.22,158.579 1869.52,158.579 2010.82,158.579 2152.11,158.579 2293.41,158.579 2152.11,158.579 2010.82,158.579 1869.52,158.579 1728.22,158.579 1586.92,158.579 
  1445.62,158.579 1304.33,158.579 1163.03,158.579 1021.73,158.579 880.434,158.579 739.136,158.579 597.838,158.579 456.54,158.579 315.243,158.579 
  "/>
<path clip-path="url(#clip5600)" d="
M327.898 1068.99 L784.596 1068.99 L784.596 766.588 L327.898 766.588  Z
  " fill="#ffffff" fill-rule="evenodd" fill-opacity="1"/>
<polyline clip-path="url(#clip5600)" style="stroke:#000000; stroke-width:4; stroke-opacity:1; fill:none" points="
  327.898,1068.99 784.596,1068.99 784.596,766.588 327.898,766.588 327.898,1068.99 
  "/>
<polyline clip-path="url(#clip5600)" style="stroke:#ff0000; stroke-width:4; stroke-opacity:1; fill:none" points="
  351.898,827.068 495.898,827.068 
  "/>
<polygon clip-path="url(#clip5600)" style="fill:#000000; fill-opacity:1" points="
  463.898,799.068 407.898,799.068 435.898,855.068 463.898,799.068 
  "/>
<polygon clip-path="url(#clip5600)" style="fill:#ff0000; fill-opacity:1" points="
  459.898,803.068 411.898,803.068 435.898,851.068 459.898,803.068 
  "/>
<g clip-path="url(#clip5600)">
<text style="fill:#000000; fill-opacity:1; font-family:Arial,Helvetica Neue,Helvetica,sans-serif; font-size:48px; text-anchor:start;" transform="rotate(0, 519.898, 844.568)" x="519.898" y="844.568">SGM</text>
</g>
<polyline clip-path="url(#clip5600)" style="stroke:#008000; stroke-width:4; stroke-opacity:1; fill:none" points="
  351.898,887.548 495.898,887.548 
  "/>
<circle clip-path="url(#clip5600)" style="fill:#000000; stroke:none; fill-opacity:1" cx="435.898" cy="887.548" r="25"/>
<circle clip-path="url(#clip5600)" style="fill:#008000; stroke:none; fill-opacity:1" cx="435.898" cy="887.548" r="21"/>
<g clip-path="url(#clip5600)">
<text style="fill:#000000; fill-opacity:1; font-family:Arial,Helvetica Neue,Helvetica,sans-serif; font-size:48px; text-anchor:start;" transform="rotate(0, 519.898, 905.048)" x="519.898" y="905.048">Truncated</text>
</g>
<polyline clip-path="url(#clip5600)" style="stroke:#0000ff; stroke-width:4; stroke-opacity:1; fill:none" points="
  351.898,948.028 495.898,948.028 
  "/>
<polygon clip-path="url(#clip5600)" style="fill:#000000; fill-opacity:1" points="
  407.898,920.028 407.898,976.028 463.898,976.028 463.898,920.028 407.898,920.028 
  "/>
<polygon clip-path="url(#clip5600)" style="fill:#0000ff; fill-opacity:1" points="
  411.898,924.028 411.898,972.028 459.898,972.028 459.898,924.028 411.898,924.028 
  "/>
<g clip-path="url(#clip5600)">
<text style="fill:#000000; fill-opacity:1; font-family:Arial,Helvetica Neue,Helvetica,sans-serif; font-size:48px; text-anchor:start;" transform="rotate(0, 519.898, 965.528)" x="519.898" y="965.528">Proximal</text>
</g>
<polyline clip-path="url(#clip5600)" style="stroke:#000000; stroke-width:4; stroke-opacity:1; fill:none" points="
  351.898,1008.51 495.898,1008.51 
  "/>
<polygon clip-path="url(#clip5600)" style="fill:#000000; fill-opacity:1" points="
  435.898,980.508 407.898,1008.51 435.898,1036.51 463.898,1008.51 435.898,980.508 
  "/>
<polygon clip-path="url(#clip5600)" style="fill:#000000; fill-opacity:1" points="
  435.898,984.508 411.898,1008.51 435.898,1032.51 459.898,1008.51 435.898,984.508 
  "/>
<g clip-path="url(#clip5600)">
<text style="fill:#000000; fill-opacity:1; font-family:Arial,Helvetica Neue,Helvetica,sans-serif; font-size:48px; text-anchor:start;" transform="rotate(0, 519.898, 1026.01)" x="519.898" y="1026.01">bundle</text>
</g>
</svg>