<?xml version="1.0" encoding="utf-8"?>
<svg xmlns="http://www.w3.org/2000/svg" xmlns:xlink="http://www.w3.org/1999/xlink" width="600" height="400" viewBox="0 0 2400 1600">
<defs>
  <clipPath id="clip4800">
    <rect x="0" y="0" width="2400" height="1600"/>
  </clipPath>
</defs>
<path clip-path="url(#clip4800)" d="
M0 1600 L2400 1600 L2400 0 L0 0  Z
  " fill="#ffffff" fill-rule="evenodd" fill-opacity="1"/>
<defs>
  <clipPath id="clip4801">
    <rect x="480" y="0" width="1681" height="1600"/>
  </clipPath>
</defs>
<path clip-path="url(#clip4800)" d="
M255.898 1425.62 L2352.76 1425.62 L2352.76 121.675 L255.898 121.675  Z
  " fill="#ffffff" fill-rule="evenodd" fill-opacity="1"/>
<defs>
  <clipPath id="clip4802">
    <rect x="255" y="121" width="2098" height="1305"/>
  </clipPath>
</defs>
<polyline clip-path="url(#clip4802)" style="stroke:#000000; stroke-width:2; stroke-opacity:0.1; fill:none" points="
  315.243,1425.62 315.243,121.675 
  "/>
<polyline clip-path="url(#clip4802)" style="stroke:#000000; stroke-width:2; stroke-opacity:0.1; fill:none" points="
  880.434,1425.62 880.434,121.675 
  "/>
<polyline clip-path="url(#clip4802)" style="stroke:#000000; stroke-width:2; stroke-opacity:0.1; fill:none" points="
  1445.62,1425.62 1445.62,121.675 
  "/>
<polyline clip-path="url(#clip4802)" style="stroke:#000000; stroke-width:2; stroke-opacity:0.1; fill:none" points="
  2010.82,1425.62 2010.82,121.675 
  "/>
<polyline clip-path="url(#clip4802)" style="stroke:#000000; stroke-width:2; stroke-opacity:0.1; fill:none" points="
  255.898,1391.18 2352.76,1391.18 
  "/>
<polyline clip-path="url(#clip4802)" style="stroke:#000000; stroke-width:2; stroke-opacity:0.1; fill:none" points="
  255.898,1083.03 2352.76,1083.03 
  "/>
<polyline clip-path="url(#clip4802)" style="stroke:#000000; stroke-width:2; stroke-opacity:0.1; fill:none" points="
  255.898,774.879 2352.76,774.879 
  "/>
<polyline clip-path="url(#clip4802)" style="stroke:#000000; stroke-width:2; stroke-opacity:0.1; fill:none" points="
  255.898,466.729 2352.76,466.729 
  "/>
<polyline clip-path="url(#clip4802)" style="stroke:#000000; stroke-width:2; stroke-opacity:0.1; fill:none" points="
  255.898,158.579 2352.76,158.579 
  "/>
<polyline clip-path="url(#clip4800)" style="stroke:#000000; stroke-width:4; stroke-opacity:1; fill:none" points="
  255.898,1425.62 2352.76,1425.62 
  "/>
<polyline clip-path="url(#clip4800)" style="stroke:#000000; stroke-width:4; stroke-opacity:1; fill:none" points="
  255.898,1425.62 255.898,121.675 
  "/>
<polyline clip-path="url(#clip4800)" style="stroke:#000000; stroke-width:4; stroke-opacity:1; fill:none" points="
  315.243,1425.62 315.243,1406.06 
  "/>
<polyline clip-path="url(#clip4800)" style="stroke:#000000; stroke-width:4; stroke-opacity:1; fill:none" points="
  880.434,1425.62 880.434,1406.06 
  "/>
<polyline clip-path="url(#clip4800)" style="stroke:#000000; stroke-width:4; stroke-opacity:1; fill:none" points="
  1445.62,1425.62 1445.62,1406.06 
  "/>
<polyline clip-path="url(#clip4800)" style="stroke:#000000; stroke-width:4; stroke-opacity:1; fill:none" points="
  2010.82,1425.62 2010.82,1406.06 
  "/>
<polyline clip-path="url(#clip4800)" style="stroke:#000000; stroke-width:4; stroke-opacity:1; fill:none" points="
  255.898,1391.18 287.35,1391.18 
  "/>
<polyline clip-path="url(#clip4800)" style="stroke:#000000; stroke-width:4; stroke-opacity:1; fill:none" points="
  255.898,1083.03 287.35,1083.03 
  "/>
<polyline clip-path="url(#clip4800)" style="stroke:#000000; stroke-width:4; stroke-opacity:1; fill:none" points="
  255.898,774.879 287.35,774.879 
  "/>
<polyline clip-path="url(#clip4800)" style="stroke:#000000; stroke-width:4; stroke-opacity:1; fill:none" points="
  255.898,466.729 287.35,466.729 
  "/>
<polyline clip-path="url(#clip4800)" style="stroke:#000000; stroke-width:4; stroke-opacity:1; fill:none" points="
  255.898,158.579 287.35,158.579 
  "/>
<g clip-path="url(#clip4800)">
<text style="fill:#000000; fill-opacity:1; font-family:Arial,Helvetica Neue,Helvetica,sans-serif; font-size:48px; text-anchor:start;" transform="rotate(0, 260.752, 1500.63)" x="260.752" y="1500.63">10</text>
</g>
<g clip-path="url(#clip4800)">
<text style="fill:#000000; fill-opacity:1; font-family:Arial,Helvetica Neue,Helvetica,sans-serif; font-size:38px; text-anchor:start;" transform="rotate(0, 314.277, 1473.22)" x="314.277" y="1473.22">-</text>
</g>
<g clip-path="url(#clip4800)">
<text style="fill:#000000; fill-opacity:1; font-family:Arial,Helvetica Neue,Helvetica,sans-serif; font-size:38px; text-anchor:start;" transform="rotate(0, 337.116, 1473.22)" x="337.116" y="1473.22">2 </text>
</g>
<g clip-path="url(#clip4800)">
<text style="fill:#000000; fill-opacity:1; font-family:Arial,Helvetica Neue,Helvetica,sans-serif; font-size:48px; text-anchor:start;" transform="rotate(0, 837.363, 1500.63)" x="837.363" y="1500.63">10</text>
</g>
<g clip-path="url(#clip4800)">
<text style="fill:#000000; fill-opacity:1; font-family:Arial,Helvetica Neue,Helvetica,sans-serif; font-size:38px; text-anchor:start;" transform="rotate(0, 890.888, 1473.22)" x="890.888" y="1473.22">0 </text>
</g>
<g clip-path="url(#clip4800)">
<text style="fill:#000000; fill-opacity:1; font-family:Arial,Helvetica Neue,Helvetica,sans-serif; font-size:48px; text-anchor:start;" transform="rotate(0, 1402.55, 1500.63)" x="1402.55" y="1500.63">10</text>
</g>
<g clip-path="url(#clip4800)">
<text style="fill:#000000; fill-opacity:1; font-family:Arial,Helvetica Neue,Helvetica,sans-serif; font-size:38px; text-anchor:start;" transform="rotate(0, 1456.08, 1473.22)" x="1456.08" y="1473.22">2 </text>
</g>
<g clip-path="url(#clip4800)">
<text style="fill:#000000; fill-opacity:1; font-family:Arial,Helvetica Neue,Helvetica,sans-serif; font-size:48px; text-anchor:start;" transform="rotate(0, 1967.74, 1500.63)" x="1967.74" y="1500.63">10</text>
</g>
<g clip-path="url(#clip4800)">
<text style="fill:#000000; fill-opacity:1; font-family:Arial,Helvetica Neue,Helvetica,sans-serif; font-size:38px; text-anchor:start;" transform="rotate(0, 2021.27, 1473.22)" x="2021.27" y="1473.22">4 </text>
</g>
<g clip-path="url(#clip4800)">
<text style="fill:#000000; fill-opacity:1; font-family:Arial,Helvetica Neue,Helvetica,sans-serif; font-size:48px; text-anchor:end;" transform="rotate(0, 231.898, 1408.68)" x="231.898" y="1408.68">0</text>
</g>
<g clip-path="url(#clip4800)">
<text style="fill:#000000; fill-opacity:1; font-family:Arial,Helvetica Neue,Helvetica,sans-serif; font-size:48px; text-anchor:end;" transform="rotate(0, 231.898, 1100.53)" x="231.898" y="1100.53">250</text>
</g>
<g clip-path="url(#clip4800)">
<text style="fill:#000000; fill-opacity:1; font-family:Arial,Helvetica Neue,Helvetica,sans-serif; font-size:48px; text-anchor:end;" transform="rotate(0, 231.898, 792.379)" x="231.898" y="792.379">500</text>
</g>
<g clip-path="url(#clip4800)">
<text style="fill:#000000; fill-opacity:1; font-family:Arial,Helvetica Neue,Helvetica,sans-serif; font-size:48px; text-anchor:end;" transform="rotate(0, 231.898, 484.229)" x="231.898" y="484.229">750</text>
</g>
<g clip-path="url(#clip4800)">
<text style="fill:#000000; fill-opacity:1; font-family:Arial,Helvetica Neue,Helvetica,sans-serif; font-size:48px; text-anchor:end;" transform="rotate(0, 231.898, 176.079)" x="231.898" y="176.079">1000</text>
</g>
<g clip-path="url(#clip4800)">
<text style="fill:#000000; fill-opacity:1; font-family:Arial,Helvetica Neue,Helvetica,sans-serif; font-size:84px; text-anchor:middle;" transform="rotate(0, 1304.33, 73.2)" x="1304.33" y="73.2">Figure 2. (a)</text>
</g>
<g clip-path="url(#clip4800)">
<text style="fill:#000000; fill-opacity:1; font-family:Arial,Helvetica Neue,Helvetica,sans-serif; font-size:66px; text-anchor:middle;" transform="rotate(0, 1304.33, 1559.48)" x="1304.33" y="1559.48">Initial Step Size</text>
</g>
<g clip-path="url(#clip4800)">
<text style="fill:#000000; fill-opacity:1; font-family:Arial,Helvetica Neue,Helvetica,sans-serif; font-size:66px; text-anchor:middle;" transform="rotate(-90, 89.2861, 773.647)" x="89.2861" y="773.647">Time to accuracy, eps=0.05</text>
</g>
<polyline clip-path="url(#clip4802)" style="stroke:#ff0000; stroke-width:4; stroke-opacity:1; fill:none" points="
  315.243,158.579 456.54,158.579 597.838,158.579 739.136,158.579 880.434,158.579 1021.73,791.52 1163.03,1338.79 1304.33,1380.09 1445.62,1365.3 1586.92,1140.96 
  1728.22,158.579 1869.52,158.579 2010.82,158.579 2152.11,158.579 2293.41,158.579 
  "/>
<polygon clip-path="url(#clip4802)" style="fill:#000000; fill-opacity:1" points="
  335.243,138.579 295.243,138.579 315.243,178.579 335.243,138.579 
  "/>
<polygon clip-path="url(#clip4802)" style="fill:#ff0000; fill-opacity:1" points="
  331.243,142.579 299.243,142.579 315.243,174.579 331.243,142.579 
  "/>
<polygon clip-path="url(#clip4802)" style="fill:#000000; fill-opacity:1" points="
  476.54,138.579 436.54,138.579 456.54,178.579 476.54,138.579 
  "/>
<polygon clip-path="url(#clip4802)" style="fill:#ff0000; fill-opacity:1" points="
  472.54,142.579 440.54,142.579 456.54,174.579 472.54,142.579 
  "/>
<polygon clip-path="url(#clip4802)" style="fill:#000000; fill-opacity:1" points="
  617.838,138.579 577.838,138.579 597.838,178.579 617.838,138.579 
  "/>
<polygon clip-path="url(#clip4802)" style="fill:#ff0000; fill-opacity:1" points="
  613.838,142.579 581.838,142.579 597.838,174.579 613.838,142.579 
  "/>
<polygon clip-path="url(#clip4802)" style="fill:#000000; fill-opacity:1" points="
  759.136,138.579 719.136,138.579 739.136,178.579 759.136,138.579 
  "/>
<polygon clip-path="url(#clip4802)" style="fill:#ff0000; fill-opacity:1" points="
  755.136,142.579 723.136,142.579 739.136,174.579 755.136,142.579 
  "/>
<polygon clip-path="url(#clip4802)" style="fill:#000000; fill-opacity:1" points="
  900.434,138.579 860.434,138.579 880.434,178.579 900.434,138.579 
  "/>
<polygon clip-path="url(#clip4802)" style="fill:#ff0000; fill-opacity:1" points="
  896.434,142.579 864.434,142.579 880.434,174.579 896.434,142.579 
  "/>
<polygon clip-path="url(#clip4802)" style="fill:#000000; fill-opacity:1" points="
  1041.73,771.52 1001.73,771.52 1021.73,811.52 1041.73,771.52 
  "/>
<polygon clip-path="url(#clip4802)" style="fill:#ff0000; fill-opacity:1" points="
  1037.73,775.52 1005.73,775.52 1021.73,807.52 1037.73,775.52 
  "/>
<polygon clip-path="url(#clip4802)" style="fill:#000000; fill-opacity:1" points="
  1183.03,1318.79 1143.03,1318.79 1163.03,1358.79 1183.03,1318.79 
  "/>
<polygon clip-path="url(#clip4802)" style="fill:#ff0000; fill-opacity:1" points="
  1179.03,1322.79 1147.03,1322.79 1163.03,1354.79 1179.03,1322.79 
  "/>
<polygon clip-path="url(#clip4802)" style="fill:#000000; fill-opacity:1" points="
  1324.33,1360.09 1284.33,1360.09 1304.33,1400.09 1324.33,1360.09 
  "/>
<polygon clip-path="url(#clip4802)" style="fill:#ff0000; fill-opacity:1" points="
  1320.33,1364.09 1288.33,1364.09 1304.33,1396.09 1320.33,1364.09 
  "/>
<polygon clip-path="url(#clip4802)" style="fill:#000000; fill-opacity:1" points="
  1465.62,1345.3 1425.62,1345.3 1445.62,1385.3 1465.62,1345.3 
  "/>
<polygon clip-path="url(#clip4802)" style="fill:#ff0000; fill-opacity:1" points="
  1461.62,1349.3 1429.62,1349.3 1445.62,1381.3 1461.62,1349.3 
  "/>
<polygon clip-path="url(#clip4802)" style="fill:#000000; fill-opacity:1" points="
  1606.92,1120.96 1566.92,1120.96 1586.92,1160.96 1606.92,1120.96 
  "/>
<polygon clip-path="url(#clip4802)" style="fill:#ff0000; fill-opacity:1" points="
  1602.92,1124.96 1570.92,1124.96 1586.92,1156.96 1602.92,1124.96 
  "/>
<polygon clip-path="url(#clip4802)" style="fill:#000000; fill-opacity:1" points="
  1748.22,138.579 1708.22,138.579 1728.22,178.579 1748.22,138.579 
  "/>
<polygon clip-path="url(#clip4802)" style="fill:#ff0000; fill-opacity:1" points="
  1744.22,142.579 1712.22,142.579 1728.22,174.579 1744.22,142.579 
  "/>
<polygon clip-path="url(#clip4802)" style="fill:#000000; fill-opacity:1" points="
  1889.52,138.579 1849.52,138.579 1869.52,178.579 1889.52,138.579 
  "/>
<polygon clip-path="url(#clip4802)" style="fill:#ff0000; fill-opacity:1" points="
  1885.52,142.579 1853.52,142.579 1869.52,174.579 1885.52,142.579 
  "/>
<polygon clip-path="url(#clip4802)" style="fill:#000000; fill-opacity:1" points="
  2030.82,138.579 1990.82,138.579 2010.82,178.579 2030.82,138.579 
  "/>
<polygon clip-path="url(#clip4802)" style="fill:#ff0000; fill-opacity:1" points="
  2026.82,142.579 1994.82,142.579 2010.82,174.579 2026.82,142.579 
  "/>
<polygon clip-path="url(#clip4802)" style="fill:#000000; fill-opacity:1" points="
  2172.11,138.579 2132.11,138.579 2152.11,178.579 2172.11,138.579 
  "/>
<polygon clip-path="url(#clip4802)" style="fill:#ff0000; fill-opacity:1" points="
  2168.11,142.579 2136.11,142.579 2152.11,174.579 2168.11,142.579 
  "/>
<polygon clip-path="url(#clip4802)" style="fill:#000000; fill-opacity:1" points="
  2313.41,138.579 2273.41,138.579 2293.41,178.579 2313.41,138.579 
  "/>
<polygon clip-path="url(#clip4802)" style="fill:#ff0000; fill-opacity:1" points="
  2309.41,142.579 2277.41,142.579 2293.41,174.579 2309.41,142.579 
  "/>
<polyline clip-path="url(#clip4802)" style="stroke:#008000; stroke-width:4; stroke-opacity:1; fill:none" points="
  315.243,158.579 456.54,158.579 597.838,158.579 739.136,158.579 880.434,158.579 1021.73,766.868 1163.03,1333.86 1304.33,1377 1445.62,1378.85 1586.92,1378.85 
  1728.22,1377.62 1869.52,1378.24 2010.82,1378.85 2152.11,1378.85 2293.41,1378.85 
  "/>
<circle clip-path="url(#clip4802)" style="fill:#000000; stroke:none; fill-opacity:1" cx="315.243" cy="158.579" r="18"/>
<circle clip-path="url(#clip4802)" style="fill:#008000; stroke:none; fill-opacity:1" cx="315.243" cy="158.579" r="14"/>
<circle clip-path="url(#clip4802)" style="fill:#000000; stroke:none; fill-opacity:1" cx="456.54" cy="158.579" r="18"/>
<circle clip-path="url(#clip4802)" style="fill:#008000; stroke:none; fill-opacity:1" cx="456.54" cy="158.579" r="14"/>
<circle clip-path="url(#clip4802)" style="fill:#000000; stroke:none; fill-opacity:1" cx="597.838" cy="158.579" r="18"/>
<circle clip-path="url(#clip4802)" style="fill:#008000; stroke:none; fill-opacity:1" cx="597.838" cy="158.579" r="14"/>
<circle clip-path="url(#clip4802)" style="fill:#000000; stroke:none; fill-opacity:1" cx="739.136" cy="158.579" r="18"/>
<circle clip-path="url(#clip4802)" style="fill:#008000; stroke:none; fill-opacity:1" cx="739.136" cy="158.579" r="14"/>
<circle clip-path="url(#clip4802)" style="fill:#000000; stroke:none; fill-opacity:1" cx="880.434" cy="158.579" r="18"/>
<circle clip-path="url(#clip4802)" style="fill:#008000; stroke:none; fill-opacity:1" cx="880.434" cy="158.579" r="14"/>
<circle clip-path="url(#clip4802)" style="fill:#000000; stroke:none; fill-opacity:1" cx="1021.73" cy="766.868" r="18"/>
<circle clip-path="url(#clip4802)" style="fill:#008000; stroke:none; fill-opacity:1" cx="1021.73" cy="766.868" r="14"/>
<circle clip-path="url(#clip4802)" style="fill:#000000; stroke:none; fill-opacity:1" cx="1163.03" cy="1333.86" r="18"/>
<circle clip-path="url(#clip4802)" style="fill:#008000; stroke:none; fill-opacity:1" cx="1163.03" cy="1333.86" r="14"/>
<circle clip-path="url(#clip4802)" style="fill:#000000; stroke:none; fill-opacity:1" cx="1304.33" cy="1377" r="18"/>
<circle clip-path="url(#clip4802)" style="fill:#008000; stroke:none; fill-opacity:1" cx="1304.33" cy="1377" r="14"/>
<circle clip-path="url(#clip4802)" style="fill:#000000; stroke:none; fill-opacity:1" cx="1445.62" cy="1378.85" r="18"/>
<circle clip-path="url(#clip4802)" style="fill:#008000; stroke:none; fill-opacity:1" cx="1445.62" cy="1378.85" r="14"/>
<circle clip-path="url(#clip4802)" style="fill:#000000; stroke:none; fill-opacity:1" cx="1586.92" cy="1378.85" r="18"/>
<circle clip-path="url(#clip4802)" style="fill:#008000; stroke:none; fill-opacity:1" cx="1586.92" cy="1378.85" r="14"/>
<circle clip-path="url(#clip4802)" style="fill:#000000; stroke:none; fill-opacity:1" cx="1728.22" cy="1377.62" r="18"/>
<circle clip-path="url(#clip4802)" style="fill:#008000; stroke:none; fill-opacity:1" cx="1728.22" cy="1377.62" r="14"/>
<circle clip-path="url(#clip4802)" style="fill:#000000; stroke:none; fill-opacity:1" cx="1869.52" cy="1378.24" r="18"/>
<circle clip-path="url(#clip4802)" style="fill:#008000; stroke:none; fill-opacity:1" cx="1869.52" cy="1378.24" r="14"/>
<circle clip-path="url(#clip4802)" style="fill:#000000; stroke:none; fill-opacity:1" cx="2010.82" cy="1378.85" r="18"/>
<circle clip-path="url(#clip4802)" style="fill:#008000; stroke:none; fill-opacity:1" cx="2010.82" cy="1378.85" r="14"/>
<circle clip-path="url(#clip4802)" style="fill:#000000; stroke:none; fill-opacity:1" cx="2152.11" cy="1378.85" r="18"/>
<circle clip-path="url(#clip4802)" style="fill:#008000; stroke:none; fill-opacity:1" cx="2152.11" cy="1378.85" r="14"/>
<circle clip-path="url(#clip4802)" style="fill:#000000; stroke:none; fill-opacity:1" cx="2293.41" cy="1378.85" r="18"/>
<circle clip-path="url(#clip4802)" style="fill:#008000; stroke:none; fill-opacity:1" cx="2293.41" cy="1378.85" r="14"/>
<polyline clip-path="url(#clip4802)" style="stroke:#0000ff; stroke-width:4; stroke-opacity:1; fill:none" points="
  315.243,158.579 456.54,158.579 597.838,158.579 739.136,158.579 880.434,158.579 1021.73,763.17 1163.03,1328.93 1304.33,1373.31 1445.62,1380.09 1586.92,1381.32 
  1728.22,1382.55 1869.52,1381.32 2010.82,1381.32 2152.11,1381.32 2293.41,1381.32 
  "/>
<polygon clip-path="url(#clip4802)" style="fill:#000000; fill-opacity:1" points="
  295.243,138.579 295.243,178.579 335.243,178.579 335.243,138.579 295.243,138.579 
  "/>
<polygon clip-path="url(#clip4802)" style="fill:#0000ff; fill-opacity:1" points="
  299.243,142.579 299.243,174.579 331.243,174.579 331.243,142.579 299.243,142.579 
  "/>
<polygon clip-path="url(#clip4802)" style="fill:#000000; fill-opacity:1" points="
  436.54,138.579 436.54,178.579 476.54,178.579 476.54,138.579 436.54,138.579 
  "/>
<polygon clip-path="url(#clip4802)" style="fill:#0000ff; fill-opacity:1" points="
  440.54,142.579 440.54,174.579 472.54,174.579 472.54,142.579 440.54,142.579 
  "/>
<polygon clip-path="url(#clip4802)" style="fill:#000000; fill-opacity:1" points="
  577.838,138.579 577.838,178.579 617.838,178.579 617.838,138.579 577.838,138.579 
  "/>
<polygon clip-path="url(#clip4802)" style="fill:#0000ff; fill-opacity:1" points="
  581.838,142.579 581.838,174.579 613.838,174.579 613.838,142.579 581.838,142.579 
  "/>
<polygon clip-path="url(#clip4802)" style="fill:#000000; fill-opacity:1" points="
  719.136,138.579 719.136,178.579 759.136,178.579 759.136,138.579 719.136,138.579 
  "/>
<polygon clip-path="url(#clip4802)" style="fill:#0000ff; fill-opacity:1" points="
  723.136,142.579 723.136,174.579 755.136,174.579 755.136,142.579 723.136,142.579 
  "/>
<polygon clip-path="url(#clip4802)" style="fill:#000000; fill-opacity:1" points="
  860.434,138.579 860.434,178.579 900.434,178.579 900.434,138.579 860.434,138.579 
  "/>
<polygon clip-path="url(#clip4802)" style="fill:#0000ff; fill-opacity:1" points="
  864.434,142.579 864.434,174.579 896.434,174.579 896.434,142.579 864.434,142.579 
  "/>
<polygon clip-path="url(#clip4802)" style="fill:#000000; fill-opacity:1" points="
  1001.73,743.17 1001.73,783.17 1041.73,783.17 1041.73,743.17 1001.73,743.17 
  "/>
<polygon clip-path="url(#clip4802)" style="fill:#0000ff; fill-opacity:1" points="
  1005.73,747.17 1005.73,779.17 1037.73,779.17 1037.73,747.17 1005.73,747.17 
  "/>
<polygon clip-path="url(#clip4802)" style="fill:#000000; fill-opacity:1" points="
  1143.03,1308.93 1143.03,1348.93 1183.03,1348.93 1183.03,1308.93 1143.03,1308.93 
  "/>
<polygon clip-path="url(#clip4802)" style="fill:#0000ff; fill-opacity:1" points="
  1147.03,1312.93 1147.03,1344.93 1179.03,1344.93 1179.03,1312.93 1147.03,1312.93 
  "/>
<polygon clip-path="url(#clip4802)" style="fill:#000000; fill-opacity:1" points="
  1284.33,1353.31 1284.33,1393.31 1324.33,1393.31 1324.33,1353.31 1284.33,1353.31 
  "/>
<polygon clip-path="url(#clip4802)" style="fill:#0000ff; fill-opacity:1" points="
  1288.33,1357.31 1288.33,1389.31 1320.33,1389.31 1320.33,1357.31 1288.33,1357.31 
  "/>
<polygon clip-path="url(#clip4802)" style="fill:#000000; fill-opacity:1" points="
  1425.62,1360.09 1425.62,1400.09 1465.62,1400.09 1465.62,1360.09 1425.62,1360.09 
  "/>
<polygon clip-path="url(#clip4802)" style="fill:#0000ff; fill-opacity:1" points="
  1429.62,1364.09 1429.62,1396.09 1461.62,1396.09 1461.62,1364.09 1429.62,1364.09 
  "/>
<polygon clip-path="url(#clip4802)" style="fill:#000000; fill-opacity:1" points="
  1566.92,1361.32 1566.92,1401.32 1606.92,1401.32 1606.92,1361.32 1566.92,1361.32 
  "/>
<polygon clip-path="url(#clip4802)" style="fill:#0000ff; fill-opacity:1" points="
  1570.92,1365.32 1570.92,1397.32 1602.92,1397.32 1602.92,1365.32 1570.92,1365.32 
  "/>
<polygon clip-path="url(#clip4802)" style="fill:#000000; fill-opacity:1" points="
  1708.22,1362.55 1708.22,1402.55 1748.22,1402.55 1748.22,1362.55 1708.22,1362.55 
  "/>
<polygon clip-path="url(#clip4802)" style="fill:#0000ff; fill-opacity:1" points="
  1712.22,1366.55 1712.22,1398.55 1744.22,1398.55 1744.22,1366.55 1712.22,1366.55 
  "/>
<polygon clip-path="url(#clip4802)" style="fill:#000000; fill-opacity:1" points="
  1849.52,1361.32 1849.52,1401.32 1889.52,1401.32 1889.52,1361.32 1849.52,1361.32 
  "/>
<polygon clip-path="url(#clip4802)" style="fill:#0000ff; fill-opacity:1" points="
  1853.52,1365.32 1853.52,1397.32 1885.52,1397.32 1885.52,1365.32 1853.52,1365.32 
  "/>
<polygon clip-path="url(#clip4802)" style="fill:#000000; fill-opacity:1" points="
  1990.82,1361.32 1990.82,1401.32 2030.82,1401.32 2030.82,1361.32 1990.82,1361.32 
  "/>
<polygon clip-path="url(#clip4802)" style="fill:#0000ff; fill-opacity:1" points="
  1994.82,1365.32 1994.82,1397.32 2026.82,1397.32 2026.82,1365.32 1994.82,1365.32 
  "/>
<polygon clip-path="url(#clip4802)" style="fill:#000000; fill-opacity:1" points="
  2132.11,1361.32 2132.11,1401.32 2172.11,1401.32 2172.11,1361.32 2132.11,1361.32 
  "/>
<polygon clip-path="url(#clip4802)" style="fill:#0000ff; fill-opacity:1" points="
  2136.11,1365.32 2136.11,1397.32 2168.11,1397.32 2168.11,1365.32 2136.11,1365.32 
  "/>
<polygon clip-path="url(#clip4802)" style="fill:#000000; fill-opacity:1" points="
  2273.41,1361.32 2273.41,1401.32 2313.41,1401.32 2313.41,1361.32 2273.41,1361.32 
  "/>
<polygon clip-path="url(#clip4802)" style="fill:#0000ff; fill-opacity:1" points="
  2277.41,1365.32 2277.41,1397.32 2309.41,1397.32 2309.41,1365.32 2277.41,1365.32 
  "/>
<polyline clip-path="url(#clip4802)" style="stroke:#000000; stroke-width:4; stroke-opacity:1; fill:none" points="
  315.243,158.579 456.54,158.579 597.838,158.579 739.136,158.579 880.434,158.579 1021.73,733.587 1163.03,1322.77 1304.33,1371.46 1445.62,1378.85 1586.92,1334.48 
  1728.22,792.752 1869.52,158.579 2010.82,158.579 2152.11,158.579 2293.41,158.579 
  "/>
<polygon clip-path="url(#clip4802)" style="fill:#000000; fill-opacity:1" points="
  315.243,138.579 295.243,158.579 315.243,178.579 335.243,158.579 315.243,138.579 
  "/>
<polygon clip-path="url(#clip4802)" style="fill:#000000; fill-opacity:1" points="
  315.243,142.579 299.243,158.579 315.243,174.579 331.243,158.579 315.243,142.579 
  "/>
<polygon clip-path="url(#clip4802)" style="fill:#000000; fill-opacity:1" points="
  456.54,138.579 436.54,158.579 456.54,178.579 476.54,158.579 456.54,138.579 
  "/>
<polygon clip-path="url(#clip4802)" style="fill:#000000; fill-opacity:1" points="
  456.54,142.579 440.54,158.579 456.54,174.579 472.54,158.579 456.54,142.579 
  "/>
<polygon clip-path="url(#clip4802)" style="fill:#000000; fill-opacity:1" points="
  597.838,138.579 577.838,158.579 597.838,178.579 617.838,158.579 597.838,138.579 
  "/>
<polygon clip-path="url(#clip4802)" style="fill:#000000; fill-opacity:1" points="
  597.838,142.579 581.838,158.579 597.838,174.579 613.838,158.579 597.838,142.579 
  "/>
<polygon clip-path="url(#clip4802)" style="fill:#000000; fill-opacity:1" points="
  739.136,138.579 719.136,158.579 739.136,178.579 759.136,158.579 739.136,138.579 
  "/>
<polygon clip-path="url(#clip4802)" style="fill:#000000; fill-opacity:1" points="
  739.136,142.579 723.136,158.579 739.136,174.579 755.136,158.579 739.136,142.579 
  "/>
<polygon clip-path="url(#clip4802)" style="fill:#000000; fill-opacity:1" points="
  880.434,138.579 860.434,158.579 880.434,178.579 900.434,158.579 880.434,138.579 
  "/>
<polygon clip-path="url(#clip4802)" style="fill:#000000; fill-opacity:1" points="
  880.434,142.579 864.434,158.579 880.434,174.579 896.434,158.579 880.434,142.579 
  "/>
<polygon clip-path="url(#clip4802)" style="fill:#000000; fill-opacity:1" points="
  1021.73,713.587 1001.73,733.587 1021.73,753.587 1041.73,733.587 1021.73,713.587 
  "/>
<polygon clip-path="url(#clip4802)" style="fill:#000000; fill-opacity:1" points="
  1021.73,717.587 1005.73,733.587 1021.73,749.587 1037.73,733.587 1021.73,717.587 
  "/>
<polygon clip-path="url(#clip4802)" style="fill:#000000; fill-opacity:1" points="
  1163.03,1302.77 1143.03,1322.77 1163.03,1342.77 1183.03,1322.77 1163.03,1302.77 
  "/>
<polygon clip-path="url(#clip4802)" style="fill:#000000; fill-opacity:1" points="
  1163.03,1306.77 1147.03,1322.77 1163.03,1338.77 1179.03,1322.77 1163.03,1306.77 
  "/>
<polygon clip-path="url(#clip4802)" style="fill:#000000; fill-opacity:1" points="
  1304.33,1351.46 1284.33,1371.46 1304.33,1391.46 1324.33,1371.46 1304.33,1351.46 
  "/>
<polygon clip-path="url(#clip4802)" style="fill:#000000; fill-opacity:1" points="
  1304.33,1355.46 1288.33,1371.46 1304.33,1387.46 1320.33,1371.46 1304.33,1355.46 
  "/>
<polygon clip-path="url(#clip4802)" style="fill:#000000; fill-opacity:1" points="
  1445.62,1358.85 1425.62,1378.85 1445.62,1398.85 1465.62,1378.85 1445.62,1358.85 
  "/>
<polygon clip-path="url(#clip4802)" style="fill:#000000; fill-opacity:1" points="
  1445.62,1362.85 1429.62,1378.85 1445.62,1394.85 1461.62,1378.85 1445.62,1362.85 
  "/>
<polygon clip-path="url(#clip4802)" style="fill:#000000; fill-opacity:1" points="
  1586.92,1314.48 1566.92,1334.48 1586.92,1354.48 1606.92,1334.48 1586.92,1314.48 
  "/>
<polygon clip-path="url(#clip4802)" style="fill:#000000; fill-opacity:1" points="
  1586.92,1318.48 1570.92,1334.48 1586.92,1350.48 1602.92,1334.48 1586.92,1318.48 
  "/>
<polygon clip-path="url(#clip4802)" style="fill:#000000; fill-opacity:1" points="
  1728.22,772.752 1708.22,792.752 1728.22,812.752 1748.22,792.752 1728.22,772.752 
  "/>
<polygon clip-path="url(#clip4802)" style="fill:#000000; fill-opacity:1" points="
  1728.22,776.752 1712.22,792.752 1728.22,808.752 1744.22,792.752 1728.22,776.752 
  "/>
<polygon clip-path="url(#clip4802)" style="fill:#000000; fill-opacity:1" points="
  1869.52,138.579 1849.52,158.579 1869.52,178.579 1889.52,158.579 1869.52,138.579 
  "/>
<polygon clip-path="url(#clip4802)" style="fill:#000000; fill-opacity:1" points="
  1869.52,142.579 1853.52,158.579 1869.52,174.579 1885.52,158.579 1869.52,142.579 
  "/>
<polygon clip-path="url(#clip4802)" style="fill:#000000; fill-opacity:1" points="
  2010.82,138.579 1990.82,158.579 2010.82,178.579 2030.82,158.579 2010.82,138.579 
  "/>
<polygon clip-path="url(#clip4802)" style="fill:#000000; fill-opacity:1" points="
  2010.82,142.579 1994.82,158.579 2010.82,174.579 2026.82,158.579 2010.82,142.579 
  "/>
<polygon clip-path="url(#clip4802)" style="fill:#000000; fill-opacity:1" points="
  2152.11,138.579 2132.11,158.579 2152.11,178.579 2172.11,158.579 2152.11,138.579 
  "/>
<polygon clip-path="url(#clip4802)" style="fill:#000000; fill-opacity:1" points="
  2152.11,142.579 2136.11,158.579 2152.11,174.579 2168.11,158.579 2152.11,142.579 
  "/>
<polygon clip-path="url(#clip4802)" style="fill:#000000; fill-opacity:1" points="
  2293.41,138.579 2273.41,158.579 2293.41,178.579 2313.41,158.579 2293.41,138.579 
  "/>
<polygon clip-path="url(#clip4802)" style="fill:#000000; fill-opacity:1" points="
  2293.41,142.579 2277.41,158.579 2293.41,174.579 2309.41,158.579 2293.41,142.579 
  "/>
<path clip-path="url(#clip4802)" d="
M315.243 158.579 L456.54 158.579 L597.838 158.579 L739.136 158.579 L880.434 158.579 L1021.73 987.441 L1163.03 1376.39 L1304.33 1387.48 L1445.62 1378.92 L1586.92 1260.59 
  L1728.22 158.579 L1869.52 158.579 L2010.82 158.579 L2152.11 158.579 L2293.41 158.579 L315.243 158.579 L456.54 158.579 L597.838 158.579 L739.136 158.579 L880.434 158.579 
  L1021.73 561.27 L1163.03 1293.8 L1304.33 1366.47 L1445.62 1318.21 L1586.92 954.223 L1728.22 158.579 L1869.52 158.579 L2010.82 158.579 L2152.11 158.579 L2293.41 158.579 
  L315.243 158.579  Z
  " fill="#ff0000" fill-rule="evenodd" fill-opacity="0.2"/>
<polyline clip-path="url(#clip4802)" style="stroke:#000000; stroke-width:4; stroke-opacity:0; fill:none" points="
  315.243,158.579 456.54,158.579 597.838,158.579 739.136,158.579 880.434,158.579 1021.73,987.441 1163.03,1376.39 1304.33,1387.48 1445.62,1378.92 1586.92,1260.59 
  1728.22,158.579 1869.52,158.579 2010.82,158.579 2152.11,158.579 2293.41,158.579 315.243,158.579 456.54,158.579 597.838,158.579 739.136,158.579 880.434,158.579 
  1021.73,561.27 1163.03,1293.8 1304.33,1366.47 1445.62,1318.21 1586.92,954.223 1728.22,158.579 1869.52,158.579 2010.82,158.579 2152.11,158.579 2293.41,158.579 
  315.243,158.579 
  "/>
<path clip-path="url(#clip4802)" d="
M315.243 158.579 L456.54 158.579 L597.838 158.579 L739.136 158.579 L880.434 158.579 L1021.73 1022.88 L1163.03 1374.05 L1304.33 1385.02 L1445.62 1386.25 L1586.92 1385.08 
  L1728.22 1385.08 L1869.52 1386.25 L2010.82 1385.02 L2152.11 1386.25 L2293.41 1385.08 L2293.41 1366.53 L2152.11 1371.4 L2010.82 1371.33 L1869.52 1370.16 L1728.22 1366.47 
  L1586.92 1370.23 L1445.62 1370.16 L1304.33 1364 L1163.03 1293.25 L1021.73 525.648 L880.434 158.579 L739.136 158.579 L597.838 158.579 L456.54 158.579 L315.243 158.579 
   Z
  " fill="#008000" fill-rule="evenodd" fill-opacity="0.2"/>
<polyline clip-path="url(#clip4802)" style="stroke:#000000; stroke-width:4; stroke-opacity:0; fill:none" points="
  315.243,158.579 456.54,158.579 597.838,158.579 739.136,158.579 880.434,158.579 1021.73,1022.88 1163.03,1374.05 1304.33,1385.02 1445.62,1386.25 1586.92,1385.08 
  1728.22,1385.08 1869.52,1386.25 2010.82,1385.02 2152.11,1386.25 2293.41,1385.08 2293.41,1366.53 2152.11,1371.4 2010.82,1371.33 1869.52,1370.16 1728.22,1366.47 
  1586.92,1370.23 1445.62,1370.16 1304.33,1364 1163.03,1293.25 1021.73,525.648 880.434,158.579 739.136,158.579 597.838,158.579 456.54,158.579 315.243,158.579 
  
  "/>
<path clip-path="url(#clip4802)" d="
M315.243 158.579 L456.54 158.579 L597.838 158.579 L739.136 158.579 L880.434 158.579 L1021.73 941.281 L1163.03 1357.96 L1304.33 1385.08 L1445.62 1386.25 L1586.92 1386.25 
  L1728.22 1387.48 L1869.52 1387.48 L2010.82 1387.48 L2152.11 1388.71 L2293.41 1386.31 L2293.41 1375.03 L2152.11 1373.86 L2010.82 1371.46 L1869.52 1375.09 L1728.22 1372.63 
  L1586.92 1372.63 L1445.62 1372.63 L1304.33 1356.48 L1163.03 1278.89 L1021.73 551.717 L880.434 158.579 L739.136 158.579 L597.838 158.579 L456.54 158.579 L315.243 158.579 
   Z
  " fill="#0000ff" fill-rule="evenodd" fill-opacity="0.2"/>
<polyline clip-path="url(#clip4802)" style="stroke:#000000; stroke-width:4; stroke-opacity:0; fill:none" points="
  315.243,158.579 456.54,158.579 597.838,158.579 739.136,158.579 880.434,158.579 1021.73,941.281 1163.03,1357.96 1304.33,1385.08 1445.62,1386.25 1586.92,1386.25 
  1728.22,1387.48 1869.52,1387.48 2010.82,1387.48 2152.11,1388.71 2293.41,1386.31 2293.41,1375.03 2152.11,1373.86 2010.82,1371.46 1869.52,1375.09 1728.22,1372.63 
  1586.92,1372.63 1445.62,1372.63 1304.33,1356.48 1163.03,1278.89 1021.73,551.717 880.434,158.579 739.136,158.579 597.838,158.579 456.54,158.579 315.243,158.579 
  
  "/>
<path clip-path="url(#clip4802)" d="
M315.243 158.579 L456.54 158.579 L597.838 158.579 L739.136 158.579 L880.434 158.579 L1021.73 997.98 L1163.03 1361.66 L1304.33 1385.02 L1445.62 1386.25 L1586.92 1366.53 
  L1728.22 985.284 L1869.52 158.579 L2010.82 158.579 L2152.11 158.579 L2293.41 158.579 L2152.11 158.579 L2010.82 158.579 L1869.52 158.579 L1728.22 596.337 L1586.92 1248.51 
  L1445.62 1367.7 L1304.33 1351.67 L1163.03 1266.56 L1021.73 557.942 L880.434 158.579 L739.136 158.579 L597.838 158.579 L456.54 158.579 L315.243 158.579  Z
  " fill="#000000" fill-rule="evenodd" fill-opacity="0.2"/>
<polyline clip-path="url(#clip4802)" style="stroke:#000000; stroke-width:4; stroke-opacity:0; fill:none" points="
  315.243,158.579 456.54,158.579 597.838,158.579 739.136,158.579 880.434,158.579 1021.73,997.98 1163.03,1361.66 1304.33,1385.02 1445.62,1386.25 1586.92,1366.53 
  1728.22,985.284 1869.52,158.579 2010.82,158.579 2152.11,158.579 2293.41,158.579 2152.11,158.579 2010.82,158.579 1869.52,158.579 1728.22,596.337 1586.92,1248.51 
  1445.62,1367.7 1304.33,1351.67 1163.03,1266.56 1021.73,557.942 880.434,158.579 739.136,158.579 597.838,158.579 456.54,158.579 315.243,158.579 
  "/>
<path clip-path="url(#clip4800)" d="
M327.898 1068.99 L784.596 1068.99 L784.596 766.588 L327.898 766.588  Z
  " fill="#ffffff" fill-rule="evenodd" fill-opacity="1"/>
<polyline clip-path="url(#clip4800)" style="stroke:#000000; stroke-width:4; stroke-opacity:1; fill:none" points="
  327.898,1068.99 784.596,1068.99 784.596,766.588 327.898,766.588 327.898,1068.99 
  "/>
<polyline clip-path="url(#clip4800)" style="stroke:#ff0000; stroke-width:4; stroke-opacity:1; fill:none" points="
  351.898,827.068 495.898,827.068 
  "/>
<polygon clip-path="url(#clip4800)" style="fill:#000000; fill-opacity:1" points="
  463.898,799.068 407.898,799.068 435.898,855.068 463.898,799.068 
  "/>
<polygon clip-path="url(#clip4800)" style="fill:#ff0000; fill-opacity:1" points="
  459.898,803.068 411.898,803.068 435.898,851.068 459.898,803.068 
  "/>
<g clip-path="url(#clip4800)">
<text style="fill:#000000; fill-opacity:1; font-family:Arial,Helvetica Neue,Helvetica,sans-serif; font-size:48px; text-anchor:start;" transform="rotate(0, 519.898, 844.568)" x="519.898" y="844.568">SGM</text>
</g>
<polyline clip-path="url(#clip4800)" style="stroke:#008000; stroke-width:4; stroke-opacity:1; fill:none" points="
  351.898,887.548 495.898,887.548 
  "/>
<circle clip-path="url(#clip4800)" style="fill:#000000; stroke:none; fill-opacity:1" cx="435.898" cy="887.548" r="25"/>
<circle clip-path="url(#clip4800)" style="fill:#008000; stroke:none; fill-opacity:1" cx="435.898" cy="887.548" r="21"/>
<g clip-path="url(#clip4800)">
<text style="fill:#000000; fill-opacity:1; font-family:Arial,Helvetica Neue,Helvetica,sans-serif; font-size:48px; text-anchor:start;" transform="rotate(0, 519.898, 905.048)" x="519.898" y="905.048">Truncated</text>
</g>
<polyline clip-path="url(#clip4800)" style="stroke:#0000ff; stroke-width:4; stroke-opacity:1; fill:none" points="
  351.898,948.028 495.898,948.028 
  "/>
<polygon clip-path="url(#clip4800)" style="fill:#000000; fill-opacity:1" points="
  407.898,920.028 407.898,976.028 463.898,976.028 463.898,920.028 407.898,920.028 
  "/>
<polygon clip-path="url(#clip4800)" style="fill:#0000ff; fill-opacity:1" points="
  411.898,924.028 411.898,972.028 459.898,972.028 459.898,924.028 411.898,924.028 
  "/>
<g clip-path="url(#clip4800)">
<text style="fill:#000000; fill-opacity:1; font-family:Arial,Helvetica Neue,Helvetica,sans-serif; font-size:48px; text-anchor:start;" transform="rotate(0, 519.898, 965.528)" x="519.898" y="965.528">Proximal</text>
</g>
<polyline clip-path="url(#clip4800)" style="stroke:#000000; stroke-width:4; stroke-opacity:1; fill:none" points="
  351.898,1008.51 495.898,1008.51 
  "/>
<polygon clip-path="url(#clip4800)" style="fill:#000000; fill-opacity:1" points="
  435.898,980.508 407.898,1008.51 435.898,1036.51 463.898,1008.51 435.898,980.508 
  "/>
<polygon clip-path="url(#clip4800)" style="fill:#000000; fill-opacity:1" points="
  435.898,984.508 411.898,1008.51 435.898,1032.51 459.898,1008.51 435.898,984.508 
  "/>
<g clip-path="url(#clip4800)">
<text style="fill:#000000; fill-opacity:1; font-family:Arial,Helvetica Neue,Helvetica,sans-serif; font-size:48px; text-anchor:start;" transform="rotate(0, 519.898, 1026.01)" x="519.898" y="1026.01">bundle</text>
</g>
</svg>